<mxfile host="app.diagrams.net" agent="Mozilla/5.0 (Windows NT 10.0; Win64; x64; rv:129.0) Gecko/20100101 Firefox/129.0" scale="1" border="0" version="24.7.8">
  <diagram id="dIe3htdN8or-eYGjtdwk" name="Seite-1">
    <mxGraphModel dx="1050" dy="1178" grid="0" gridSize="10" guides="1" tooltips="1" connect="1" arrows="1" fold="1" page="1" pageScale="1" pageWidth="444" pageHeight="640" math="0" shadow="0">
      <root>
        <mxCell id="0" />
        <mxCell id="1" parent="0" />
        <mxCell id="bZ1f6T55pEfagdD1Zm0P-2" value="&lt;p style=&quot;line-height: 140%;&quot;&gt;&lt;br&gt;&lt;/p&gt;" style="rounded=0;whiteSpace=wrap;html=1;" parent="1" vertex="1">
          <mxGeometry x="5" y="-628" width="150" height="60" as="geometry" />
        </mxCell>
        <mxCell id="rGF4ST0ST0lqnFrO_cEw-2" value="" style="endArrow=none;html=1;rounded=0;entryX=1;entryY=0;entryDx=0;entryDy=0;exitX=0.25;exitY=1;exitDx=0;exitDy=0;elbow=vertical;" parent="1" source="bZ1f6T55pEfagdD1Zm0P-2" target="bZ1f6T55pEfagdD1Zm0P-2" edge="1">
          <mxGeometry width="50" height="50" relative="1" as="geometry">
            <mxPoint x="-75" y="-418" as="sourcePoint" />
            <mxPoint x="-25" y="-468" as="targetPoint" />
          </mxGeometry>
        </mxCell>
        <mxCell id="rGF4ST0ST0lqnFrO_cEw-3" value="&#xa;&lt;span style=&quot;color: rgb(0, 0, 0); font-family: Helvetica; font-size: 12px; font-style: normal; font-variant-ligatures: normal; font-variant-caps: normal; font-weight: 400; letter-spacing: normal; orphans: 2; text-align: center; text-indent: 0px; text-transform: none; widows: 2; word-spacing: 0px; -webkit-text-stroke-width: 0px; background-color: rgb(251, 251, 251); text-decoration-thickness: initial; text-decoration-style: initial; text-decoration-color: initial; float: none; display: inline !important;&quot;&gt;System&lt;/span&gt;&lt;br style=&quot;border-color: var(--border-color); color: rgb(0, 0, 0); font-family: Helvetica; font-size: 12px; font-style: normal; font-variant-ligatures: normal; font-variant-caps: normal; font-weight: 400; letter-spacing: normal; orphans: 2; text-align: center; text-indent: 0px; text-transform: none; widows: 2; word-spacing: 0px; -webkit-text-stroke-width: 0px; background-color: rgb(251, 251, 251); text-decoration-thickness: initial; text-decoration-style: initial; text-decoration-color: initial;&quot;&gt;&lt;span style=&quot;color: rgb(0, 0, 0); font-family: Helvetica; font-size: 12px; font-style: normal; font-variant-ligatures: normal; font-variant-caps: normal; font-weight: 400; letter-spacing: normal; orphans: 2; text-align: center; text-indent: 0px; text-transform: none; widows: 2; word-spacing: 0px; -webkit-text-stroke-width: 0px; background-color: rgb(251, 251, 251); text-decoration-thickness: initial; text-decoration-style: initial; text-decoration-color: initial; float: none; display: inline !important;&quot;&gt;feasibility&lt;/span&gt;&#xa;&#xa;" style="text;html=1;strokeColor=none;fillColor=none;align=center;verticalAlign=middle;whiteSpace=wrap;rounded=0;" parent="1" vertex="1">
          <mxGeometry x="15" y="-613" width="60" height="30" as="geometry" />
        </mxCell>
        <mxCell id="rGF4ST0ST0lqnFrO_cEw-8" value="&lt;p style=&quot;line-height: 140%;&quot;&gt;&lt;br&gt;&lt;/p&gt;" style="rounded=0;whiteSpace=wrap;html=1;" parent="1" vertex="1">
          <mxGeometry x="285" y="-68" width="150" height="60" as="geometry" />
        </mxCell>
        <mxCell id="rGF4ST0ST0lqnFrO_cEw-9" value="" style="endArrow=none;html=1;rounded=0;entryX=1;entryY=0;entryDx=0;entryDy=0;exitX=0.25;exitY=1;exitDx=0;exitDy=0;elbow=vertical;" parent="1" source="rGF4ST0ST0lqnFrO_cEw-8" target="rGF4ST0ST0lqnFrO_cEw-8" edge="1">
          <mxGeometry width="50" height="50" relative="1" as="geometry">
            <mxPoint x="-55" y="-398" as="sourcePoint" />
            <mxPoint x="-5" y="-448" as="targetPoint" />
          </mxGeometry>
        </mxCell>
        <mxCell id="rGF4ST0ST0lqnFrO_cEw-10" value="&lt;p style=&quot;line-height: 140%;&quot;&gt;&lt;br&gt;&lt;/p&gt;" style="rounded=0;whiteSpace=wrap;html=1;" parent="1" vertex="1">
          <mxGeometry x="165" y="-308" width="150" height="60" as="geometry" />
        </mxCell>
        <mxCell id="rGF4ST0ST0lqnFrO_cEw-11" value="" style="endArrow=none;html=1;rounded=0;entryX=1;entryY=0;entryDx=0;entryDy=0;exitX=0.25;exitY=1;exitDx=0;exitDy=0;elbow=vertical;" parent="1" source="rGF4ST0ST0lqnFrO_cEw-10" target="rGF4ST0ST0lqnFrO_cEw-10" edge="1">
          <mxGeometry width="50" height="50" relative="1" as="geometry">
            <mxPoint x="-45" y="-388" as="sourcePoint" />
            <mxPoint x="5" y="-438" as="targetPoint" />
          </mxGeometry>
        </mxCell>
        <mxCell id="rGF4ST0ST0lqnFrO_cEw-12" value="&lt;p style=&quot;line-height: 140%;&quot;&gt;&lt;br&gt;&lt;/p&gt;" style="rounded=0;whiteSpace=wrap;html=1;" parent="1" vertex="1">
          <mxGeometry x="125" y="-388" width="150" height="60" as="geometry" />
        </mxCell>
        <mxCell id="rGF4ST0ST0lqnFrO_cEw-13" value="" style="endArrow=none;html=1;rounded=0;entryX=1;entryY=0;entryDx=0;entryDy=0;exitX=0.25;exitY=1;exitDx=0;exitDy=0;elbow=vertical;" parent="1" source="rGF4ST0ST0lqnFrO_cEw-12" target="rGF4ST0ST0lqnFrO_cEw-12" edge="1">
          <mxGeometry width="50" height="50" relative="1" as="geometry">
            <mxPoint x="-35" y="-378" as="sourcePoint" />
            <mxPoint x="15" y="-428" as="targetPoint" />
          </mxGeometry>
        </mxCell>
        <mxCell id="rGF4ST0ST0lqnFrO_cEw-14" value="&lt;p style=&quot;line-height: 140%;&quot;&gt;&lt;br&gt;&lt;/p&gt;" style="rounded=0;whiteSpace=wrap;html=1;" parent="1" vertex="1">
          <mxGeometry x="85" y="-468" width="150" height="60" as="geometry" />
        </mxCell>
        <mxCell id="rGF4ST0ST0lqnFrO_cEw-15" value="" style="endArrow=none;html=1;rounded=0;entryX=1;entryY=0;entryDx=0;entryDy=0;exitX=0.25;exitY=1;exitDx=0;exitDy=0;elbow=vertical;" parent="1" source="rGF4ST0ST0lqnFrO_cEw-14" target="rGF4ST0ST0lqnFrO_cEw-14" edge="1">
          <mxGeometry width="50" height="50" relative="1" as="geometry">
            <mxPoint x="-25" y="-368" as="sourcePoint" />
            <mxPoint x="25" y="-418" as="targetPoint" />
          </mxGeometry>
        </mxCell>
        <mxCell id="rGF4ST0ST0lqnFrO_cEw-16" value="&lt;p style=&quot;line-height: 140%;&quot;&gt;&lt;br&gt;&lt;/p&gt;" style="rounded=0;whiteSpace=wrap;html=1;" parent="1" vertex="1">
          <mxGeometry x="45" y="-548" width="150" height="60" as="geometry" />
        </mxCell>
        <mxCell id="rGF4ST0ST0lqnFrO_cEw-17" value="" style="endArrow=none;html=1;rounded=0;entryX=1;entryY=0;entryDx=0;entryDy=0;exitX=0.25;exitY=1;exitDx=0;exitDy=0;elbow=vertical;" parent="1" source="rGF4ST0ST0lqnFrO_cEw-16" target="rGF4ST0ST0lqnFrO_cEw-16" edge="1">
          <mxGeometry width="50" height="50" relative="1" as="geometry">
            <mxPoint x="-15" y="-358" as="sourcePoint" />
            <mxPoint x="35" y="-408" as="targetPoint" />
          </mxGeometry>
        </mxCell>
        <mxCell id="rGF4ST0ST0lqnFrO_cEw-18" value="&lt;p style=&quot;line-height: 140%;&quot;&gt;&lt;br&gt;&lt;/p&gt;" style="rounded=0;whiteSpace=wrap;html=1;" parent="1" vertex="1">
          <mxGeometry x="205" y="-228" width="150" height="60" as="geometry" />
        </mxCell>
        <mxCell id="rGF4ST0ST0lqnFrO_cEw-19" value="" style="endArrow=none;html=1;rounded=0;entryX=1;entryY=0;entryDx=0;entryDy=0;exitX=0.25;exitY=1;exitDx=0;exitDy=0;elbow=vertical;" parent="1" source="rGF4ST0ST0lqnFrO_cEw-18" target="rGF4ST0ST0lqnFrO_cEw-18" edge="1">
          <mxGeometry width="50" height="50" relative="1" as="geometry">
            <mxPoint x="-5" y="-348" as="sourcePoint" />
            <mxPoint x="45" y="-398" as="targetPoint" />
          </mxGeometry>
        </mxCell>
        <mxCell id="rGF4ST0ST0lqnFrO_cEw-20" value="&lt;p style=&quot;line-height: 140%;&quot;&gt;&lt;br&gt;&lt;/p&gt;" style="rounded=0;whiteSpace=wrap;html=1;" parent="1" vertex="1">
          <mxGeometry x="245" y="-148" width="150" height="60" as="geometry" />
        </mxCell>
        <mxCell id="rGF4ST0ST0lqnFrO_cEw-21" value="" style="endArrow=none;html=1;rounded=0;entryX=1;entryY=0;entryDx=0;entryDy=0;exitX=0.25;exitY=1;exitDx=0;exitDy=0;elbow=vertical;" parent="1" source="rGF4ST0ST0lqnFrO_cEw-20" target="rGF4ST0ST0lqnFrO_cEw-20" edge="1">
          <mxGeometry width="50" height="50" relative="1" as="geometry">
            <mxPoint x="115" y="-178" as="sourcePoint" />
            <mxPoint x="165" y="-228" as="targetPoint" />
          </mxGeometry>
        </mxCell>
        <mxCell id="rGF4ST0ST0lqnFrO_cEw-23" value="" style="curved=1;endArrow=blockThin;html=1;rounded=0;exitX=1;exitY=0.75;exitDx=0;exitDy=0;entryX=0.941;entryY=-0.054;entryDx=0;entryDy=0;entryPerimeter=0;endFill=1;" parent="1" source="bZ1f6T55pEfagdD1Zm0P-2" target="rGF4ST0ST0lqnFrO_cEw-16" edge="1">
          <mxGeometry width="50" height="50" relative="1" as="geometry">
            <mxPoint x="105" y="-498" as="sourcePoint" />
            <mxPoint x="185" y="-558" as="targetPoint" />
            <Array as="points">
              <mxPoint x="175" y="-578" />
            </Array>
          </mxGeometry>
        </mxCell>
        <mxCell id="rGF4ST0ST0lqnFrO_cEw-32" value="" style="curved=1;endArrow=blockThin;html=1;rounded=0;exitX=1;exitY=0.75;exitDx=0;exitDy=0;entryX=0.941;entryY=-0.054;entryDx=0;entryDy=0;entryPerimeter=0;endFill=1;" parent="1" edge="1">
          <mxGeometry width="50" height="50" relative="1" as="geometry">
            <mxPoint x="395" y="-100" as="sourcePoint" />
            <mxPoint x="426" y="-68" as="targetPoint" />
            <Array as="points">
              <mxPoint x="415" y="-95" />
            </Array>
          </mxGeometry>
        </mxCell>
        <mxCell id="rGF4ST0ST0lqnFrO_cEw-33" value="" style="curved=1;endArrow=blockThin;html=1;rounded=0;exitX=1;exitY=0.75;exitDx=0;exitDy=0;entryX=0.941;entryY=-0.054;entryDx=0;entryDy=0;entryPerimeter=0;endFill=1;" parent="1" edge="1">
          <mxGeometry width="50" height="50" relative="1" as="geometry">
            <mxPoint x="355" y="-180" as="sourcePoint" />
            <mxPoint x="386" y="-148" as="targetPoint" />
            <Array as="points">
              <mxPoint x="375" y="-175" />
            </Array>
          </mxGeometry>
        </mxCell>
        <mxCell id="rGF4ST0ST0lqnFrO_cEw-34" value="" style="curved=1;endArrow=blockThin;html=1;rounded=0;exitX=1;exitY=0.75;exitDx=0;exitDy=0;endFill=1;" parent="1" edge="1">
          <mxGeometry width="50" height="50" relative="1" as="geometry">
            <mxPoint x="315" y="-258" as="sourcePoint" />
            <mxPoint x="346" y="-228" as="targetPoint" />
            <Array as="points">
              <mxPoint x="335" y="-253" />
            </Array>
          </mxGeometry>
        </mxCell>
        <mxCell id="rGF4ST0ST0lqnFrO_cEw-35" value="" style="curved=1;endArrow=blockThin;html=1;rounded=0;exitX=1;exitY=0.75;exitDx=0;exitDy=0;endFill=1;" parent="1" edge="1">
          <mxGeometry width="50" height="50" relative="1" as="geometry">
            <mxPoint x="275" y="-338" as="sourcePoint" />
            <mxPoint x="306" y="-308" as="targetPoint" />
            <Array as="points">
              <mxPoint x="295" y="-333" />
            </Array>
          </mxGeometry>
        </mxCell>
        <mxCell id="rGF4ST0ST0lqnFrO_cEw-36" value="" style="curved=1;endArrow=blockThin;html=1;rounded=0;exitX=1;exitY=0.75;exitDx=0;exitDy=0;entryX=0.941;entryY=-0.054;entryDx=0;entryDy=0;entryPerimeter=0;endFill=1;" parent="1" edge="1">
          <mxGeometry width="50" height="50" relative="1" as="geometry">
            <mxPoint x="235" y="-420" as="sourcePoint" />
            <mxPoint x="266" y="-388" as="targetPoint" />
            <Array as="points">
              <mxPoint x="255" y="-415" />
            </Array>
          </mxGeometry>
        </mxCell>
        <mxCell id="rGF4ST0ST0lqnFrO_cEw-37" value="" style="curved=1;endArrow=blockThin;html=1;rounded=0;exitX=1;exitY=0.75;exitDx=0;exitDy=0;entryX=0.941;entryY=-0.054;entryDx=0;entryDy=0;entryPerimeter=0;endFill=1;" parent="1" edge="1">
          <mxGeometry width="50" height="50" relative="1" as="geometry">
            <mxPoint x="195" y="-500" as="sourcePoint" />
            <mxPoint x="226" y="-468" as="targetPoint" />
            <Array as="points">
              <mxPoint x="215" y="-495" />
            </Array>
          </mxGeometry>
        </mxCell>
        <mxCell id="rGF4ST0ST0lqnFrO_cEw-38" value="" style="curved=1;endArrow=blockThin;html=1;rounded=0;exitX=0;exitY=0.25;exitDx=0;exitDy=0;entryX=0.098;entryY=1.017;entryDx=0;entryDy=0;entryPerimeter=0;endFill=1;" parent="1" source="rGF4ST0ST0lqnFrO_cEw-8" target="rGF4ST0ST0lqnFrO_cEw-20" edge="1">
          <mxGeometry width="50" height="50" relative="1" as="geometry">
            <mxPoint x="125" y="4" as="sourcePoint" />
            <mxPoint x="94" y="-28" as="targetPoint" />
            <Array as="points">
              <mxPoint x="265" y="-58" />
            </Array>
          </mxGeometry>
        </mxCell>
        <mxCell id="rGF4ST0ST0lqnFrO_cEw-39" value="" style="curved=1;endArrow=blockThin;html=1;rounded=0;exitX=0;exitY=0.25;exitDx=0;exitDy=0;entryX=0.098;entryY=1.017;entryDx=0;entryDy=0;entryPerimeter=0;endFill=1;" parent="1" edge="1">
          <mxGeometry width="50" height="50" relative="1" as="geometry">
            <mxPoint x="245" y="-134" as="sourcePoint" />
            <mxPoint x="220" y="-168" as="targetPoint" />
            <Array as="points">
              <mxPoint x="225" y="-139" />
            </Array>
          </mxGeometry>
        </mxCell>
        <mxCell id="rGF4ST0ST0lqnFrO_cEw-40" value="" style="curved=1;endArrow=blockThin;html=1;rounded=0;exitX=0;exitY=0.25;exitDx=0;exitDy=0;entryX=0.098;entryY=1.017;entryDx=0;entryDy=0;entryPerimeter=0;endFill=1;" parent="1" edge="1">
          <mxGeometry width="50" height="50" relative="1" as="geometry">
            <mxPoint x="205" y="-214" as="sourcePoint" />
            <mxPoint x="180" y="-248" as="targetPoint" />
            <Array as="points">
              <mxPoint x="185" y="-219" />
            </Array>
          </mxGeometry>
        </mxCell>
        <mxCell id="rGF4ST0ST0lqnFrO_cEw-41" value="" style="curved=1;endArrow=blockThin;html=1;rounded=0;exitX=0;exitY=0.25;exitDx=0;exitDy=0;entryX=0.098;entryY=1.017;entryDx=0;entryDy=0;entryPerimeter=0;endFill=1;" parent="1" edge="1">
          <mxGeometry width="50" height="50" relative="1" as="geometry">
            <mxPoint x="165" y="-294" as="sourcePoint" />
            <mxPoint x="140" y="-328" as="targetPoint" />
            <Array as="points">
              <mxPoint x="145" y="-299" />
            </Array>
          </mxGeometry>
        </mxCell>
        <mxCell id="rGF4ST0ST0lqnFrO_cEw-42" value="" style="curved=1;endArrow=blockThin;html=1;rounded=0;exitX=0;exitY=0.25;exitDx=0;exitDy=0;entryX=0.098;entryY=1.017;entryDx=0;entryDy=0;entryPerimeter=0;endFill=1;" parent="1" edge="1">
          <mxGeometry width="50" height="50" relative="1" as="geometry">
            <mxPoint x="125" y="-374" as="sourcePoint" />
            <mxPoint x="100" y="-408" as="targetPoint" />
            <Array as="points">
              <mxPoint x="105" y="-379" />
            </Array>
          </mxGeometry>
        </mxCell>
        <mxCell id="rGF4ST0ST0lqnFrO_cEw-43" value="" style="curved=1;endArrow=blockThin;html=1;rounded=0;exitX=0;exitY=0.25;exitDx=0;exitDy=0;entryX=0.098;entryY=1.017;entryDx=0;entryDy=0;entryPerimeter=0;endFill=1;" parent="1" edge="1">
          <mxGeometry width="50" height="50" relative="1" as="geometry">
            <mxPoint x="85" y="-454" as="sourcePoint" />
            <mxPoint x="60" y="-488" as="targetPoint" />
            <Array as="points">
              <mxPoint x="65" y="-459" />
            </Array>
          </mxGeometry>
        </mxCell>
        <mxCell id="rGF4ST0ST0lqnFrO_cEw-44" value="" style="curved=1;endArrow=blockThin;html=1;rounded=0;exitX=0;exitY=0.25;exitDx=0;exitDy=0;entryX=0.098;entryY=1.017;entryDx=0;entryDy=0;entryPerimeter=0;endFill=1;" parent="1" edge="1">
          <mxGeometry width="50" height="50" relative="1" as="geometry">
            <mxPoint x="45" y="-534" as="sourcePoint" />
            <mxPoint x="20" y="-568" as="targetPoint" />
            <Array as="points">
              <mxPoint x="25" y="-539" />
            </Array>
          </mxGeometry>
        </mxCell>
        <mxCell id="rGF4ST0ST0lqnFrO_cEw-45" value="Software plans and requirements" style="text;html=1;strokeColor=none;fillColor=none;align=center;verticalAlign=middle;whiteSpace=wrap;rounded=0;" parent="1" vertex="1">
          <mxGeometry x="45" y="-548" width="115" height="30" as="geometry" />
        </mxCell>
        <mxCell id="rGF4ST0ST0lqnFrO_cEw-46" value="Product design" style="text;html=1;strokeColor=none;fillColor=none;align=center;verticalAlign=middle;whiteSpace=wrap;rounded=0;" parent="1" vertex="1">
          <mxGeometry x="95" y="-468" width="90" height="30" as="geometry" />
        </mxCell>
        <mxCell id="rGF4ST0ST0lqnFrO_cEw-47" value="Detailed design" style="text;html=1;strokeColor=none;fillColor=none;align=center;verticalAlign=middle;whiteSpace=wrap;rounded=0;" parent="1" vertex="1">
          <mxGeometry x="125" y="-388" width="100" height="30" as="geometry" />
        </mxCell>
        <mxCell id="rGF4ST0ST0lqnFrO_cEw-48" value="Code" style="text;html=1;strokeColor=none;fillColor=none;align=center;verticalAlign=middle;whiteSpace=wrap;rounded=0;" parent="1" vertex="1">
          <mxGeometry x="175" y="-298" width="60" height="30" as="geometry" />
        </mxCell>
        <mxCell id="rGF4ST0ST0lqnFrO_cEw-49" value="Integration" style="text;html=1;strokeColor=none;fillColor=none;align=center;verticalAlign=middle;whiteSpace=wrap;rounded=0;" parent="1" vertex="1">
          <mxGeometry x="215" y="-218" width="60" height="30" as="geometry" />
        </mxCell>
        <mxCell id="rGF4ST0ST0lqnFrO_cEw-50" value="Implementation" style="text;html=1;strokeColor=none;fillColor=none;align=center;verticalAlign=middle;whiteSpace=wrap;rounded=0;" parent="1" vertex="1">
          <mxGeometry x="265" y="-148" width="60" height="30" as="geometry" />
        </mxCell>
        <mxCell id="rGF4ST0ST0lqnFrO_cEw-51" value="Operations and maintenance" style="text;html=1;strokeColor=none;fillColor=none;align=center;verticalAlign=middle;whiteSpace=wrap;rounded=0;" parent="1" vertex="1">
          <mxGeometry x="285" y="-68" width="100" height="30" as="geometry" />
        </mxCell>
        <mxCell id="rGF4ST0ST0lqnFrO_cEw-52" value="Validation" style="text;html=1;strokeColor=none;fillColor=none;align=center;verticalAlign=middle;whiteSpace=wrap;rounded=0;" parent="1" vertex="1">
          <mxGeometry x="95" y="-588" width="60" height="20" as="geometry" />
        </mxCell>
        <mxCell id="rGF4ST0ST0lqnFrO_cEw-53" value="Validation" style="text;html=1;strokeColor=none;fillColor=none;align=center;verticalAlign=middle;whiteSpace=wrap;rounded=0;" parent="1" vertex="1">
          <mxGeometry x="135" y="-518" width="60" height="30" as="geometry" />
        </mxCell>
        <mxCell id="rGF4ST0ST0lqnFrO_cEw-54" value="Verification" style="text;html=1;strokeColor=none;fillColor=none;align=center;verticalAlign=middle;whiteSpace=wrap;rounded=0;" parent="1" vertex="1">
          <mxGeometry x="175" y="-438" width="60" height="30" as="geometry" />
        </mxCell>
        <mxCell id="rGF4ST0ST0lqnFrO_cEw-55" value="Verification" style="text;html=1;strokeColor=none;fillColor=none;align=center;verticalAlign=middle;whiteSpace=wrap;rounded=0;" parent="1" vertex="1">
          <mxGeometry x="215" y="-358" width="60" height="30" as="geometry" />
        </mxCell>
        <mxCell id="rGF4ST0ST0lqnFrO_cEw-56" value="Unit test" style="text;html=1;strokeColor=none;fillColor=none;align=center;verticalAlign=middle;whiteSpace=wrap;rounded=0;" parent="1" vertex="1">
          <mxGeometry x="255" y="-278" width="60" height="30" as="geometry" />
        </mxCell>
        <mxCell id="rGF4ST0ST0lqnFrO_cEw-57" value="Product&lt;br&gt;verification" style="text;html=1;strokeColor=none;fillColor=none;align=center;verticalAlign=middle;whiteSpace=wrap;rounded=0;" parent="1" vertex="1">
          <mxGeometry x="295" y="-198" width="60" height="30" as="geometry" />
        </mxCell>
        <mxCell id="rGF4ST0ST0lqnFrO_cEw-58" value="System&lt;br&gt;test" style="text;html=1;strokeColor=none;fillColor=none;align=center;verticalAlign=middle;whiteSpace=wrap;rounded=0;" parent="1" vertex="1">
          <mxGeometry x="335" y="-118" width="60" height="30" as="geometry" />
        </mxCell>
        <mxCell id="rGF4ST0ST0lqnFrO_cEw-59" value="Revalidation" style="text;html=1;strokeColor=none;fillColor=none;align=center;verticalAlign=middle;whiteSpace=wrap;rounded=0;" parent="1" vertex="1">
          <mxGeometry x="375" y="-38" width="50" height="30" as="geometry" />
        </mxCell>
      </root>
    </mxGraphModel>
  </diagram>
</mxfile>
